<svg width="23" height="15" viewBox="0 0 23 15" fill="none" xmlns="http://www.w3.org/2000/svg">
<path d="M21.1289 8.36377C21.6812 8.36377 22.1289 7.91605 22.1289 7.36377C22.1289 6.81148 21.6812 6.36377 21.1289 6.36377L21.1289 8.36377ZM0.292767 6.65666C-0.0977573 7.04719 -0.0977574 7.68035 0.292767 8.07087L6.65673 14.4348C7.04725 14.8254 7.68042 14.8254 8.07094 14.4348C8.46147 14.0443 8.46147 13.4111 8.07094 13.0206L2.41409 7.36377L8.07094 1.70691C8.46147 1.31639 8.46147 0.683225 8.07094 0.292701C7.68042 -0.0978238 7.04725 -0.0978239 6.65673 0.2927L0.292767 6.65666ZM21.1289 6.36377L0.999874 6.36377L0.999874 8.36377L21.1289 8.36377L21.1289 6.36377Z" fill="#232536"/>
</svg>
